<?xml version="1.0" standalone="no"?>
<!DOCTYPE svg PUBLIC "-//W3C//DTD SVG 20010904//EN"
 "http://www.w3.org/TR/2001/REC-SVG-20010904/DTD/svg10.dtd">
<svg version="1.0" xmlns="http://www.w3.org/2000/svg"
 width="500px" height="100px" viewBox="0 0 500.000000 704.000000"
 preserveAspectRatio="xMidYMid meet">

<g transform="translate(0.000000,704.000000) scale(0.100000,-0.100000)"
fill="#000000" stroke="none">
<path d="M2160 5298 c-41 -4 -94 -10 -118 -11 -31 -1 -47 -8 -55 -22 -8 -13
-14 -115 -17 -310 -4 -196 -10 -297 -18 -310 -6 -11 -12 -15 -12 -8 0 21 -31
43 -61 43 -51 0 -67 -16 -89 -87 -21 -68 -53 -248 -48 -264 2 -6 -25 -38 -59
-73 -172 -177 -282 -438 -283 -673 0 -288 97 -527 299 -731 l52 -52 20 -113
c39 -221 61 -322 75 -344 17 -28 78 -32 105 -7 16 14 18 14 23 -3 18 -63 26
-195 20 -348 -5 -142 -3 -176 10 -206 15 -36 38 -54 51 -41 3 4 153 6 333 5
180 -1 367 2 417 7 52 5 97 4 107 -1 23 -12 45 12 54 57 4 20 3 102 -2 182 -8
144 -7 372 3 382 2 3 9 -3 14 -13 21 -37 119 -8 119 36 0 22 50 360 61 415 6
32 15 52 22 49 11 -3 25 10 86 81 l20 23 39 -22 39 -23 32 35 c34 36 81 127
81 158 0 10 -15 26 -35 37 -19 10 -35 22 -35 27 0 4 9 27 19 50 11 23 27 79
37 125 l17 82 54 0 c51 0 53 1 67 35 28 65 30 118 7 168 -12 25 -21 51 -21 56
0 7 -22 11 -53 11 -59 0 -49 -15 -103 155 -41 128 -41 120 5 147 25 14 41 30
41 42 0 27 -57 130 -90 161 l-28 27 -41 -23 c-24 -13 -40 -28 -37 -36 10 -24
-10 -21 -30 5 -10 15 -49 58 -86 97 -55 58 -64 71 -49 75 18 5 18 10 -5 120
-31 147 -51 208 -74 220 -28 15 -71 12 -91 -6 -16 -15 -18 -12 -23 38 -3 29
-8 157 -11 283 -2 127 -7 239 -11 250 -9 34 -123 48 -414 50 -140 2 -289 -2
-330 -7z m780 -809 c0 -11 -4 -18 -10 -14 -5 3 -7 12 -3 20 7 21 13 19 13 -6z
m-988 -21 c-9 -9 -12 -7 -12 12 0 19 3 21 12 12 9 -9 9 -15 0 -24z m-47 2 c3
-5 1 -10 -4 -10 -6 0 -11 5 -11 10 0 6 2 10 4 10 3 0 8 -4 11 -10z m1192 -22
c-3 -8 -6 -5 -6 6 -1 11 2 17 5 13 3 -3 4 -12 1 -19z m-740 -90 c-3 -7 -5 -2
-5 12 0 14 2 19 5 13 2 -7 2 -19 0 -25z m90 0 c-3 -8 -6 -5 -6 6 -1 11 2 17 5
13 3 -3 4 -12 1 -19z m80 0 c-3 -8 -6 -5 -6 6 -1 11 2 17 5 13 3 -3 4 -12 1
-19z m84 -11 c-10 -9 -11 -8 -5 6 3 10 9 15 12 12 3 -3 0 -11 -7 -18z m-411
-30 c0 -5 -4 -5 -10 -2 -5 3 -10 14 -10 23 0 15 2 15 10 2 5 -8 10 -19 10 -23z
m497 11 c-3 -8 -6 -5 -6 6 -1 11 2 17 5 13 3 -3 4 -12 1 -19z m-577 -43 c0 -5
-5 -3 -10 5 -5 8 -10 20 -10 25 0 6 5 3 10 -5 5 -8 10 -19 10 -25z m490 25 c0
-5 -12 -10 -27 -11 -21 0 -24 -2 -10 -7 16 -7 16 -8 0 -23 -22 -19 -53 -57
-53 -64 0 -3 -8 -14 -17 -25 -13 -15 -30 -20 -64 -20 -40 0 -49 4 -70 32 -13
17 -32 39 -42 47 -17 15 -17 16 5 23 20 5 19 6 -7 7 -19 1 -35 9 -43 21 -11
19 -10 20 30 20 35 0 46 -5 69 -32 l28 -33 1 33 c0 30 2 32 38 32 24 0 32 -3
23 -9 -9 -6 -11 -16 -6 -32 l8 -23 26 31 c19 23 36 33 66 36 22 2 41 4 43 5 1
1 2 -2 2 -8z m161 -13 c-10 -9 -11 -8 -5 6 3 10 9 15 12 12 3 -3 0 -11 -7 -18z
m54 -96 c-26 -45 -53 -81 -61 -81 -23 0 -16 22 37 104 34 53 54 75 61 68 7 -7
-5 -36 -37 -91z m-733 -3 c30 -51 38 -72 30 -80 -14 -14 -10 -19 -67 74 -25
43 -43 83 -40 88 10 17 32 -6 77 -82z m848 38 c0 -2 -8 -10 -17 -17 -16 -13
-17 -12 -4 4 13 16 21 21 21 13z m-970 -21 c7 -9 8 -15 2 -15 -5 0 -12 7 -16
15 -3 8 -4 15 -2 15 2 0 9 -7 16 -15z m-69 -52 c13 -16 12 -17 -3 -4 -17 13
-22 21 -14 21 2 0 10 -8 17 -17z m1309 -28 c14 -19 14 -19 -2 -6 -10 7 -18 18
-18 24 0 6 1 8 3 6 1 -2 9 -13 17 -24z m-1369 -32 c13 -16 12 -17 -3 -4 -10 7
-18 15 -18 17 0 8 8 3 21 -13z m1409 -24 c15 -28 5 -23 -15 7 -9 15 -12 23 -6
20 6 -4 16 -16 21 -27z m-4 -72 c29 -56 45 -97 39 -97 -2 0 -25 42 -50 93 -25
50 -38 83 -30 72 9 -11 28 -42 41 -68z m-1452 24 c-2 -3 -12 3 -22 13 -16 17
-16 18 5 5 12 -7 20 -15 17 -18z m1206 11 c0 -5 -35 -38 -77 -75 -225 -190
-414 -347 -419 -347 -3 0 5 15 18 33 13 17 28 40 33 49 12 20 378 315 415 335
30 15 30 15 30 5z m285 -22 c21 -40 36 -80 30 -80 -3 0 -15 21 -27 48 -12 26
-23 50 -25 55 -2 4 -2 7 1 7 3 0 12 -13 21 -30z m-725 -26 c0 -8 5 -14 11 -14
6 0 9 7 5 15 -3 8 -1 15 4 15 6 0 10 -5 10 -12 0 -6 7 -3 15 8 14 18 14 18 15
-5 0 -22 1 -23 13 -8 11 16 13 16 24 -1 11 -18 8 -19 -49 -18 -32 1 -62 -2
-65 -7 -2 -4 -11 -3 -18 3 -8 7 -19 9 -25 5 -7 -4 -6 2 2 14 12 20 14 20 26 4
11 -15 12 -15 12 6 0 12 4 19 10 16 6 -3 10 -13 10 -21z m160 1 c0 -30 -19
-32 -43 -5 -21 25 -11 26 16 3 19 -17 19 -17 13 5 -5 13 -3 22 3 22 6 0 11
-11 11 -25z m-520 -27 c0 -5 -7 -8 -15 -8 -10 0 -15 10 -15 27 0 26 1 26 15 7
8 -10 15 -22 15 -26z m20 30 c0 -9 3 -9 12 0 17 17 69 16 62 -2 -3 -8 -1 -17
5 -21 7 -3 11 2 11 15 0 18 5 20 39 19 34 -3 38 -5 32 -23 -5 -11 -14 -22 -21
-24 -9 -3 -11 1 -7 14 6 16 5 17 -5 4 -18 -21 -57 -23 -65 -5 -5 13 -7 13 -19
-2 -11 -15 -15 -15 -22 -5 -5 8 -12 13 -16 12 -4 0 -14 6 -22 15 -14 13 -14
15 0 15 9 0 16 -5 16 -12z m193 -2 c3 -8 0 -19 -7 -25 -10 -9 -12 -6 -8 14 5
29 8 31 15 11z m67 -10 l-20 -20 -20 20 -21 20 41 0 40 0 -20 -20z m690 10 c0
-16 -158 -108 -172 -100 -18 11 -2 25 77 69 90 49 95 50 95 31z m-1280 -103
c0 -21 -17 -15 -106 34 -62 34 -81 50 -73 59 7 9 30 1 94 -34 47 -26 85 -52
85 -59z m1310 17 c-8 -5 -19 -10 -25 -10 -5 0 -3 5 5 10 8 5 20 10 25 10 6 0
3 -5 -5 -10z m-1500 -10 c8 -5 11 -10 5 -10 -5 0 -17 5 -25 10 -8 5 -10 10 -5
10 6 0 17 -5 25 -10z m454 -109 c61 -38 144 -87 184 -108 39 -21 72 -41 72
-44 0 -3 -6 -13 -13 -23 -13 -17 -17 -16 -70 19 -30 20 -61 34 -67 30 -6 -3
-9 -1 -8 5 2 7 -51 47 -116 89 -66 42 -121 82 -124 89 -8 26 35 9 142 -57z
m-480 30 c4 -5 -3 -7 -14 -4 -23 6 -26 13 -6 13 8 0 17 -4 20 -9z m1104 -27
c6 -11 11 -13 16 -5 12 19 26 12 26 -15 0 -21 -4 -24 -20 -19 -18 6 -20 2 -20
-50 0 -35 6 -65 16 -81 13 -19 14 -28 5 -37 -6 -6 -11 -21 -11 -34 0 -13 -4
-23 -10 -23 -5 0 -10 9 -10 20 0 11 -6 29 -12 40 -10 15 -10 22 0 32 17 17 15
104 -2 120 -12 11 -12 15 1 31 15 15 15 17 -1 17 -9 0 -14 5 -11 10 9 15 23
12 33 -6z m-657 -108 c-2 -45 2 -72 14 -89 13 -21 13 -26 1 -36 -8 -6 -12 -20
-9 -30 3 -10 0 -22 -6 -25 -7 -5 -11 2 -11 17 0 14 -7 30 -15 37 -13 11 -13
16 -3 34 18 29 12 146 -7 146 -8 0 -17 5 -21 12 -5 8 -2 9 10 5 14 -6 17 -3
12 8 -5 14 -4 14 16 1 19 -13 21 -24 19 -80z m764 63 c-9 -17 -19 -29 -21 -26
-7 7 18 57 28 57 5 0 1 -14 -7 -31z m-341 -15 c9 -23 -76 -158 -101 -162 -38
-6 -37 30 3 99 20 35 43 69 51 76 17 14 39 8 47 -13z m713 20 c-3 -3 -12 -4
-19 -1 -8 3 -5 6 6 6 11 1 17 -2 13 -5z m-1603 -13 c4 -5 -3 -7 -14 -4 -23 6
-26 13 -6 13 8 0 17 -4 20 -9z m1046 -12 c0 -6 -4 -7 -10 -4 -5 3 -10 11 -10
16 0 6 5 7 10 4 6 -3 10 -11 10 -16z m266 -44 c-11 -8 -27 -15 -35 -15 -11 0
-10 4 5 15 10 8 26 14 34 14 11 0 10 -3 -4 -14z m-1012 -10 c15 -11 16 -15 5
-15 -8 0 -24 7 -35 15 -14 11 -15 14 -4 14 8 0 24 -6 34 -14z m676 5 c8 -5 12
-11 9 -14 -3 -3 -14 1 -25 9 -21 16 -8 20 16 5z m643 -7 c-7 -2 -19 -2 -25 0
-7 3 -2 5 12 5 14 0 19 -2 13 -5z m-1633 -13 c18 -12 2 -12 -25 0 -13 6 -15 9
-5 9 8 0 22 -4 30 -9z m1650 -65 c0 -12 -18 -15 -105 -15 -87 0 -105 3 -105
15 0 12 18 15 105 15 87 0 105 -3 105 -15z m-1490 -10 c0 -12 -18 -15 -105
-15 -96 0 -117 5 -98 23 3 4 51 7 105 7 80 0 98 -3 98 -15z m778 -41 c9 -4
-13 -34 -29 -39 -24 -8 -80 30 -74 50 3 8 7 22 10 30 4 13 12 11 47 -12 24
-15 44 -28 46 -29z m38 43 c4 -4 -7 -7 -24 -7 -18 0 -32 5 -32 10 0 11 45 9
56 -3z m394 3 c0 -5 -13 -10 -29 -10 -17 0 -33 5 -36 10 -4 6 8 10 29 10 20 0
36 -4 36 -10z m-606 -63 c-9 -16 -18 -26 -21 -23 -4 3 -11 2 -17 -4 -7 -5 -17
-5 -25 -1 -9 6 -5 15 17 33 16 14 37 25 45 25 14 0 14 -3 1 -30z m-448 -8 c4
-8 9 -7 15 2 7 12 11 11 25 -2 13 -14 14 -21 4 -40 l-13 -23 -18 22 c-9 12
-20 18 -23 13 -4 -5 0 -11 6 -14 9 -3 7 -7 -5 -12 -25 -10 -34 2 -18 27 7 11
8 17 2 13 -12 -7 -15 7 -4 18 10 10 21 8 29 -4z m314 -1 c0 17 27 15 34 -3 3
-8 1 -15 -3 -15 -5 0 -12 6 -14 13 -3 6 -6 2 -6 -11 -1 -13 3 -20 9 -17 6 3
10 1 10 -4 0 -6 -7 -11 -15 -11 -8 0 -15 6 -15 13 0 9 -2 9 -9 -1 -6 -10 -10
-7 -13 12 -6 29 2 42 14 24 6 -10 8 -10 8 0z m370 -8 c-8 -5 -7 -9 5 -14 14
-5 15 -9 5 -22 -9 -9 -17 -11 -23 -5 -5 5 -16 7 -23 4 -8 -3 -14 1 -14 11 0
24 4 31 17 31 6 0 15 3 19 7 4 4 11 5 16 1 6 -3 5 -8 -2 -13z m329 -2 c11 -30
-5 -53 -25 -37 -15 12 -19 41 -7 52 12 13 24 7 32 -15z m-1326 -15 c-7 -2 -21
-2 -30 0 -10 3 -4 5 12 5 17 0 24 -2 18 -5z m727 -23 c-6 -11 -13 -20 -16 -20
-2 0 0 9 6 20 6 11 13 20 16 20 2 0 0 -9 -6 -20z m68 -16 c2 -10 6 -50 9 -89
3 -43 11 -77 21 -88 12 -13 13 -20 4 -29 -7 -7 -12 -22 -12 -35 0 -13 -4 -23
-10 -23 -5 0 -10 11 -10 25 0 14 -4 25 -10 25 -13 0 -13 37 1 46 15 9 1 127
-17 137 -15 8 -19 39 -7 51 11 11 26 1 31 -20z m47 -4 c0 -13 -6 -25 -12 -27
-16 -6 -27 21 -19 43 9 23 31 11 31 -16z m415 -42 c0 -5 -4 -8 -8 -8 -9 0 -32
44 -32 58 1 9 39 -41 40 -50z m-540 -2 c0 -12 -5 -7 -19 24 -11 24 -11 24 3 6
9 -11 16 -24 16 -30z m188 19 c-6 -14 -15 -25 -20 -25 -9 0 -4 14 15 38 15 19
18 14 5 -13z m142 -4 c-6 -12 -15 -21 -21 -21 -10 0 -5 13 14 38 15 19 20 7 7
-17z m-574 -27 c0 -14 -3 -27 -8 -30 -4 -3 -8 12 -8 32 0 40 13 39 16 -2z
m674 6 c0 -16 -4 -30 -10 -30 -5 0 -10 14 -10 30 0 17 5 30 10 30 6 0 10 -13
10 -30z m-1130 16 c0 -2 -9 -6 -20 -9 -11 -3 -20 -1 -20 4 0 5 9 9 20 9 11 0
20 -2 20 -4z m648 -48 c-13 -24 -32 -55 -42 -70 -16 -25 -17 -28 -2 -28 9 0
16 -5 16 -11 0 -5 -9 -9 -20 -7 -16 2 -32 -17 -80 -97 -33 -55 -56 -103 -51
-108 8 -8 -82 -169 -99 -175 -31 -11 -9 40 84 193 58 96 106 179 106 184 0 5
4 11 8 13 4 2 18 20 31 41 23 37 23 39 5 52 -11 8 -14 15 -8 15 5 0 15 -5 21
-11 8 -8 16 -3 27 20 9 17 19 31 22 31 3 0 -5 -19 -18 -42z m331 -2 c-2 -2
-15 -9 -29 -15 -24 -11 -24 -11 -6 3 16 13 49 24 35 12z m-959 -30 c0 -2 -9
-6 -20 -9 -11 -3 -18 -1 -14 4 5 9 34 13 34 5z m1390 -70 c69 -36 110 -65 110
-77 0 -16 -19 -10 -105 37 -60 32 -82 49 -78 60 3 8 8 14 12 12 3 -2 31 -16
61 -32z m-1180 1 c0 -11 -146 -97 -177 -105 -7 -2 -13 3 -13 11 0 14 170 117
183 110 4 -2 7 -10 7 -16z m927 -4 c3 -7 -8 -18 -23 -24 -23 -8 -25 -12 -14
-19 13 -8 12 -10 -2 -10 -30 0 -29 19 2 35 31 16 42 32 15 21 -8 -3 -15 -1
-15 5 0 14 32 7 37 -8z m-1107 2 c0 -2 -10 -9 -22 -15 -22 -11 -22 -10 -4 4
21 17 26 19 26 11z m948 -2 c-10 -2 -26 -2 -35 0 -10 3 -2 5 17 5 19 0 27 -2
18 -5z m192 -9 c0 -11 -34 -64 -41 -64 -9 0 24 69 34 70 4 0 7 -3 7 -6z m-255
-54 c5 -8 11 -8 19 -1 16 14 26 4 26 -24 0 -20 -6 -23 -40 -23 -45 -1 -47 0
-23 19 11 10 14 10 9 2 -4 -7 -2 -13 3 -13 19 0 12 22 -9 27 -11 3 -17 9 -14
14 7 12 21 11 29 -1z m-300 -17 c11 26 35 21 35 -7 0 -27 -15 -42 -25 -26 -4
6 -11 8 -16 5 -5 -4 -17 -1 -26 4 -10 6 -12 11 -5 11 6 0 11 3 11 8 -3 20 3
25 11 7 7 -18 8 -19 15 -2z m826 -60 c13 -15 12 -15 -8 -4 -24 12 -29 21 -14
21 5 0 15 -7 22 -17z m-1331 -8 c-7 -8 -18 -15 -24 -15 -6 0 -2 7 8 15 25 19
32 19 16 0z m564 -20 c-9 -14 -19 -24 -21 -21 -7 7 16 46 28 46 5 0 2 -11 -7
-25z m206 -19 c0 -6 -7 -2 -15 8 -8 11 -15 25 -15 30 0 6 7 2 15 -8 8 -11 15
-25 15 -30z m-113 -23 c-3 -10 -5 -2 -5 17 0 19 2 27 5 18 2 -10 2 -26 0 -35z
m618 7 c10 -11 16 -20 13 -20 -3 0 -13 9 -23 20 -10 11 -16 20 -13 20 3 0 13
-9 23 -20z m-1225 -15 c-7 -8 -17 -15 -23 -15 -5 0 -2 9 8 20 21 23 35 19 15
-5z m993 -66 c51 -88 55 -99 33 -99 -16 0 -117 160 -110 172 13 21 33 1 77
-73z m-1032 24 c13 -16 12 -17 -3 -4 -10 7 -18 15 -18 17 0 8 8 3 21 -13z
m1204 -3 c10 -11 16 -20 13 -20 -3 0 -13 9 -23 20 -10 11 -16 20 -13 20 3 0
13 -9 23 -20z m-1105 -15 c-7 -9 -15 -13 -18 -10 -3 2 1 11 8 20 7 9 15 13 18
10 3 -2 -1 -11 -8 -20z m-50 -20 c13 -14 21 -25 18 -25 -2 0 -15 11 -28 25
-13 14 -21 25 -18 25 2 0 15 -11 28 -25z m610 -95 c0 -82 -3 -100 -15 -100
-12 0 -15 18 -15 100 0 82 3 100 15 100 12 0 15 -18 15 -100z m475 80 c10 -11
14 -20 9 -20 -5 0 -15 9 -22 20 -7 11 -11 20 -9 20 2 0 12 -9 22 -20z m-967
-10 c-7 -10 -14 -17 -17 -15 -4 4 18 35 25 35 2 0 -1 -9 -8 -20z m822 -90 c0
-13 -1 -13 -10 0 -5 8 -10 22 -10 30 0 13 1 13 10 0 5 -8 10 -22 10 -30z
m-674 4 c-4 -9 -9 -15 -11 -12 -3 3 -3 13 1 22 4 9 9 15 11 12 3 -3 3 -13 -1
-22z m594 -34 c0 -13 -1 -13 -10 0 -5 8 -10 22 -10 30 0 13 1 13 10 0 5 -8 10
-22 10 -30z m-514 4 c-4 -9 -9 -15 -11 -12 -3 3 -3 13 1 22 4 9 9 15 11 12 3
-3 3 -13 -1 -22z m81 -26 c-3 -7 -5 -2 -5 12 0 14 2 19 5 13 2 -7 2 -19 0 -25z
m353 -1 c0 -5 -4 -5 -10 -2 -5 3 -10 14 -10 23 0 15 2 15 10 2 5 -8 10 -19 10
-23z m-264 -14 c-11 -11 -19 6 -11 24 8 17 8 17 12 0 3 -10 2 -21 -1 -24z
m174 17 c0 -11 -2 -20 -4 -20 -2 0 -6 9 -9 20 -3 11 -1 20 4 20 5 0 9 -9 9
-20z m430 -212 c0 -55 -3 -68 -12 -61 -7 5 -24 10 -37 11 -31 1 -33 4 -38 55
-5 43 -5 44 33 59 22 9 42 14 47 11 4 -2 7 -36 7 -75z m-947 41 c36 -13 37
-15 37 -61 l0 -48 -38 0 c-21 0 -43 -5 -50 -12 -9 -9 -12 5 -12 66 0 58 3 77
13 73 6 -2 29 -10 50 -18z"/>
<path d="M2430 3612 c0 -12 19 -26 26 -19 2 2 -2 10 -11 17 -9 8 -15 8 -15 2z"/>
<path d="M1981 3494 c0 -11 3 -14 6 -6 3 7 2 16 -1 19 -3 4 -6 -2 -5 -13z"/>
<path d="M2410 3440 c0 -5 5 -10 10 -10 6 0 10 5 10 10 0 6 -4 10 -10 10 -5 0
-10 -4 -10 -10z"/>
<path d="M2460 3450 c0 -19 3 -21 12 -12 9 9 9 15 0 24 -9 9 -12 7 -12 -12z"/>
<path d="M2621 3174 c0 -11 3 -14 6 -6 3 7 2 16 -1 19 -3 4 -6 -2 -5 -13z"/>
<path d="M2312 3170 c0 -14 2 -19 5 -12 2 6 2 18 0 25 -3 6 -5 1 -5 -13z"/>
</g>
</svg>
