<?xml version="1.0" standalone="no"?>
<!DOCTYPE svg PUBLIC "-//W3C//DTD SVG 20010904//EN"
 "http://www.w3.org/TR/2001/REC-SVG-20010904/DTD/svg10.dtd">
<svg version="1.0" xmlns="http://www.w3.org/2000/svg"
 width="1000.000000pt" height="1407.000000pt" viewBox="0 0 1000.000000 1407.000000"
 preserveAspectRatio="xMidYMid meet">

<g transform="translate(0.000000,1407.000000) scale(0.100000,-0.100000)"
fill="#000000" stroke="none">
<path d="M5037 10604 c-3 -4 -110 -6 -236 -6 -148 0 -231 -4 -231 -10 0 -6 -7
-5 -15 2 -11 9 -48 11 -147 6 -73 -4 -190 -9 -260 -11 -87 -2 -135 -8 -155
-19 -31 -16 -61 -46 -47 -46 5 0 -2 -6 -16 -13 -14 -7 -25 -22 -26 -34 -1 -12
-8 -37 -17 -55 -9 -18 -18 -47 -22 -63 -15 -76 -36 -194 -40 -230 -5 -36 -10
-68 -21 -130 -2 -11 -11 -65 -19 -120 -9 -55 -23 -132 -32 -171 -18 -80 -13
-97 23 -88 24 6 24 6 -6 -25 l-31 -31 3 -285 c2 -182 7 -284 13 -283 5 2 9 9
7 16 -2 6 2 12 8 12 13 0 13 46 0 71 -7 13 -7 19 0 19 6 0 10 25 10 60 0 47
-3 60 -15 60 -12 0 -13 4 -6 18 7 13 23 19 54 20 l43 3 -3 -115 -3 -115 126
60 c147 71 376 148 524 178 466 93 991 13 1404 -215 43 -24 80 -44 81 -44 4 0
18 122 18 163 1 20 5 37 11 37 5 0 17 7 26 15 16 14 17 6 24 -122 6 -123 10
-155 19 -142 1 2 0 136 -3 297 -5 266 -7 294 -22 303 -10 6 -18 17 -18 26 0 9
-8 26 -17 37 -17 20 -17 20 0 7 20 -16 21 -9 6 39 -5 19 -18 64 -28 100 -10
36 -39 130 -64 210 -25 80 -55 179 -67 220 -47 165 -119 329 -158 362 -38 33
-83 38 -377 38 -160 0 -294 -3 -298 -6z m-1276 -977 c-10 -9 -11 -8 -5 6 3 10
9 15 12 12 3 -3 0 -11 -7 -18z"/>
<path d="M4949 9210 c418 -24 744 -128 1061 -337 122 -81 167 -117 273 -220
42 -42 79 -74 82 -71 3 3 -35 42 -85 88 -49 45 -88 86 -85 90 7 11 -20 31 -36
28 -7 -2 -13 2 -14 9 0 6 -4 15 -9 20 -5 5 -6 2 -1 -6 5 -9 3 -12 -6 -9 -8 3
-14 11 -14 19 0 7 -33 37 -74 65 -92 63 -177 111 -166 94 6 -10 4 -12 -9 -7
-10 4 -21 7 -24 7 -4 0 -1 4 7 9 19 12 -61 54 -85 44 -11 -4 -15 -2 -11 4 4 6
0 14 -9 17 -10 4 -13 2 -8 -6 5 -8 2 -9 -10 -5 -10 4 -21 7 -24 7 -4 0 0 5 8
11 12 8 10 9 -9 4 -15 -5 -21 -3 -17 3 4 6 -3 8 -16 5 -17 -3 -19 -2 -10 5 11
7 10 10 -3 16 -9 3 -21 4 -26 0 -12 -7 -79 17 -73 27 2 4 -6 5 -18 1 -14 -3
-19 -1 -14 6 4 8 2 10 -8 6 -8 -3 -56 6 -108 19 -140 38 -286 58 -458 62
l-155 4 154 -9z m862 -196 c17 -8 29 -18 26 -20 -3 -3 -20 4 -38 15 -40 25
-31 28 12 5z m199 -118 c55 -36 100 -68 100 -71 0 -8 -16 1 -55 30 -16 12 -64
44 -105 70 -41 26 -67 45 -58 42 9 -3 62 -35 118 -71z m175 -126 c3 -5 2 -10
-4 -10 -5 0 -13 5 -16 10 -3 6 -2 10 4 10 5 0 13 -4 16 -10z"/>
<path d="M4708 9203 c12 -2 32 -2 45 0 12 2 2 4 -23 4 -25 0 -35 -2 -22 -4z"/>
<path d="M4613 9193 c9 -2 25 -2 35 0 9 3 1 5 -18 5 -19 0 -27 -2 -17 -5z"/>
<path d="M4548 9183 c6 -2 18 -2 25 0 6 3 1 5 -13 5 -14 0 -19 -2 -12 -5z"/>
<path d="M4498 9173 c7 -3 16 -2 19 1 4 3 -2 6 -13 5 -11 0 -14 -3 -6 -6z"/>
<path d="M4458 9163 c7 -3 16 -2 19 1 4 3 -2 6 -13 5 -11 0 -14 -3 -6 -6z"/>
<path d="M4200 9090 c-8 -5 -10 -10 -5 -10 6 0 17 5 25 10 8 5 11 10 5 10 -5
0 -17 -5 -25 -10z"/>
<path d="M4870 9010 c-22 -22 -25 -37 -10 -60 7 -11 10 -7 10 19 0 20 7 39 18
47 9 7 14 14 10 14 -5 0 -17 -9 -28 -20z"/>
<path d="M4004 9004 c-18 -14 -18 -15 4 -4 12 6 22 13 22 15 0 8 -5 6 -26 -11z"/>
<path d="M4732 8980 c0 -19 2 -27 5 -17 2 9 2 25 0 35 -3 9 -5 1 -5 -18z"/>
<path d="M5103 8975 c0 -22 2 -30 4 -17 2 12 2 30 0 40 -3 9 -5 -1 -4 -23z"/>
<path d="M4926 8985 c-6 -16 2 -45 13 -45 3 0 6 14 6 30 0 32 -9 40 -19 15z"/>
<path d="M4968 8988 c7 -9 9 -24 6 -34 -5 -15 -4 -16 5 -8 16 15 11 46 -9 52
-12 4 -13 3 -2 -10z"/>
<path d="M4543 8970 c4 -14 7 -31 7 -37 0 -7 4 -13 9 -13 6 0 6 12 1 31 -11
38 -26 55 -17 19z"/>
<path d="M4889 8981 c9 -6 11 -16 7 -27 -6 -15 -4 -16 5 -7 14 14 5 43 -13 43
-10 0 -9 -3 1 -9z"/>
<path d="M5286 8965 c-3 -9 -6 -26 -5 -38 1 -16 4 -12 10 12 10 34 6 55 -5 26z"/>
<path d="M4361 8933 c-1 -18 19 -67 25 -61 3 3 -2 21 -10 39 -8 19 -15 29 -15
22z"/>
<path d="M5462 8901 c-7 -19 -10 -36 -7 -39 6 -7 26 49 22 62 -2 6 -9 -5 -15
-23z"/>
<path d="M4180 8875 c0 -13 32 -66 36 -62 6 6 -23 67 -31 67 -3 0 -5 -2 -5 -5z"/>
<path d="M3754 8854 c-18 -14 -18 -15 4 -4 12 6 22 13 22 15 0 8 -5 6 -26 -11z"/>
<path d="M5631 8824 c-6 -15 -9 -29 -7 -32 3 -2 10 8 16 23 6 15 9 29 7 31 -2
2 -9 -8 -16 -22z"/>
<path d="M4046 8814 c-11 -7 -18 -16 -15 -18 2 -2 13 2 23 10 11 7 18 16 15
18 -2 2 -13 -2 -23 -10z"/>
<path d="M5756 8785 c-9 -9 -16 -24 -16 -33 1 -11 6 -7 16 11 15 27 34 32 41
10 2 -6 -3 -18 -12 -27 -9 -9 -12 -16 -7 -16 20 0 36 31 26 48 -15 23 -29 25
-48 7z"/>
<path d="M3649 8773 c-13 -16 -12 -17 4 -4 16 13 21 21 13 21 -2 0 -10 -8 -17
-17z"/>
<path d="M3990 8779 c0 -5 5 -7 10 -4 6 3 10 8 10 11 0 2 -4 4 -10 4 -5 0 -10
-5 -10 -11z"/>
<path d="M4050 8780 c-12 -8 -10 -10 10 -8 17 2 25 -3 28 -16 3 -14 0 -17 -12
-13 -9 4 -16 2 -16 -4 0 -6 8 -9 18 -7 11 2 17 12 17 28 0 27 -21 36 -45 20z"/>
<path d="M3971 8773 c0 -6 2 -19 5 -27 5 -13 10 -14 20 -5 18 15 37 1 30 -24
-3 -14 -2 -17 5 -10 20 20 5 48 -23 46 -18 -1 -28 4 -31 15 -3 9 -5 12 -6 5z"/>
<path d="M5820 8740 c-9 -16 -8 -20 5 -20 18 0 20 -21 3 -39 -11 -10 -10 -11
5 -6 20 8 23 35 5 53 -17 17 -2 28 17 12 8 -7 15 -8 15 -2 0 8 -22 22 -35 22
-3 0 -9 -9 -15 -20z"/>
<path d="M3569 8703 l-34 -38 38 34 c20 19 37 36 37 38 0 8 -8 0 -41 -34z"/>
<path d="M3861 8685 c0 -14 28 -50 34 -43 3 3 -3 16 -14 29 -11 13 -20 20 -20
14z"/>
<path d="M5950 8641 c-12 -17 -18 -31 -13 -31 11 1 46 50 40 56 -3 3 -15 -9
-27 -25z"/>
<path d="M3502 8643 c-26 -24 -116 -123 -111 -123 3 0 35 32 73 70 64 65 85
94 38 53z"/>
<path d="M3710 8573 c0 -12 38 -48 45 -41 3 2 -6 15 -20 28 -14 13 -25 19 -25
13z"/>
<path d="M6096 8522 l-19 -27 26 24 c28 26 32 31 20 31 -5 0 -17 -13 -27 -28z"/>
<path d="M6400 8536 c0 -2 8 -10 18 -17 15 -13 16 -12 3 4 -13 16 -21 21 -21
13z"/>
<path d="M3364 8488 l-19 -23 23 19 c12 11 22 21 22 23 0 8 -8 2 -26 -19z"/>
<path d="M6440 8486 c0 -2 8 -10 18 -17 15 -13 16 -12 3 4 -13 16 -21 21 -21
13z"/>
<path d="M3590 8425 c13 -14 28 -25 33 -25 6 0 0 11 -13 25 -13 14 -28 25 -33
25 -6 0 0 -11 13 -25z"/>
<path d="M6224 8388 l-19 -23 25 20 c14 11 27 21 29 22 2 2 0 3 -6 3 -5 0 -18
-10 -29 -22z"/>
<path d="M6500 8406 c0 -2 8 -10 18 -17 15 -13 16 -12 3 4 -13 16 -21 21 -21
13z"/>
<path d="M6530 8366 c0 -2 8 -10 18 -17 15 -13 16 -12 3 4 -13 16 -21 21 -21
13z"/>
<path d="M6570 8310 c6 -11 13 -20 16 -20 2 0 0 9 -6 20 -6 11 -13 20 -16 20
-2 0 0 -9 6 -20z"/>
<path d="M3459 8296 c8 -9 24 -22 35 -28 19 -10 20 -10 7 6 -8 9 -24 22 -35
28 -19 10 -20 10 -7 -6z"/>
<path d="M3210 8270 c-6 -11 -8 -20 -6 -20 3 0 10 9 16 20 6 11 8 20 6 20 -3
0 -10 -9 -16 -20z"/>
<path d="M6340 8250 c-14 -10 -23 -21 -20 -23 3 -3 19 6 35 19 35 28 22 32
-15 4z"/>
<path d="M3175 8210 c-9 -16 -13 -30 -11 -30 3 0 12 14 21 30 9 17 13 30 11
30 -3 0 -12 -13 -21 -30z"/>
<path d="M6630 8211 c0 -6 4 -13 10 -16 6 -3 7 1 4 9 -7 18 -14 21 -14 7z"/>
<path d="M3369 8184 c-9 -11 -10 -20 -2 -32 14 -22 43 -22 57 1 9 15 7 21 -8
33 -25 18 -31 18 -47 -2z m48 -27 c-5 -15 -19 -18 -36 -8 -8 5 -11 16 -8 25 5
14 11 15 27 6 12 -6 20 -16 17 -23z"/>
<path d="M6660 8160 c6 -11 13 -20 16 -20 2 0 0 9 -6 20 -6 11 -13 20 -16 20
-2 0 0 -9 6 -20z"/>
<path d="M6427 8130 c-16 -10 -25 -20 -20 -23 8 -5 59 31 52 37 -2 2 -17 -5
-32 -14z"/>
<path d="M3326 8123 c-4 -9 0 -23 9 -32 13 -14 17 -14 24 -2 5 8 16 11 25 8
21 -8 21 -27 0 -27 -8 0 -12 -5 -9 -10 5 -8 11 -7 21 1 18 15 18 33 -1 49 -13
10 -19 10 -33 -4 -22 -20 -35 -10 -21 15 6 11 6 19 0 19 -5 0 -12 -8 -15 -17z"/>
<path d="M6447 8098 c-9 -5 -17 -14 -17 -20 0 -7 4 -7 13 0 6 5 21 12 32 14
16 3 17 5 4 10 -8 3 -23 2 -32 -4z"/>
<path d="M3086 8029 c-15 -33 -26 -62 -24 -65 3 -2 17 24 31 58 15 34 25 63
23 65 -1 2 -15 -24 -30 -58z"/>
<path d="M6700 8081 c0 -6 4 -13 10 -16 6 -3 7 1 4 9 -7 18 -14 21 -14 7z"/>
<path d="M6490 8073 c0 -6 -12 -16 -27 -21 -24 -9 -25 -11 -7 -11 23 -1 51 25
40 36 -3 3 -6 1 -6 -4z"/>
<path d="M4415 8025 c0 -25 3 -45 8 -45 4 0 7 9 7 21 0 11 5 17 10 14 6 -3 10
-1 10 4 0 6 -4 11 -10 11 -5 0 -10 7 -10 16 0 11 6 15 20 11 11 -3 20 -1 20 4
0 5 -12 9 -27 9 -26 0 -28 -3 -28 -45z"/>
<path d="M4481 8023 c1 -41 2 -44 8 -18 l7 30 8 -29 c6 -23 9 -27 17 -15 5 7
9 21 9 29 0 12 -2 12 -9 2 -6 -10 -11 -6 -19 17 -15 44 -22 38 -21 -16z"/>
<path d="M4547 8057 c-10 -8 -13 -23 -10 -44 7 -44 20 -42 18 3 0 19 3 38 7
40 4 3 8 -13 8 -35 0 -22 4 -42 9 -45 5 -4 7 2 4 13 -3 12 2 20 16 24 21 5 29
31 12 41 -5 3 -8 -2 -7 -11 0 -9 -5 -18 -13 -21 -10 -3 -12 1 -9 16 7 25 -14
36 -35 19z"/>
<path d="M4643 8053 c-28 -11 -9 -84 22 -83 5 0 2 5 -7 11 -21 12 -24 49 -6
67 13 13 11 14 -9 5z"/>
<path d="M4679 8047 c7 -9 11 -29 8 -43 -3 -16 -1 -22 5 -16 14 14 5 65 -12
70 -13 5 -13 3 -1 -11z"/>
<path d="M4714 8015 c-1 -25 2 -45 7 -45 5 0 9 20 9 45 0 59 -15 59 -16 0z"/>
<path d="M4746 8028 c6 -48 11 -58 31 -58 15 0 18 9 18 45 0 25 -5 45 -10 45
-6 0 -9 -17 -7 -40 3 -25 0 -40 -7 -40 -6 0 -11 17 -11 40 0 22 -4 40 -9 40
-4 0 -7 -15 -5 -32z"/>
<path d="M4812 8048 c-17 -17 -15 -53 3 -68 14 -11 15 -10 7 11 -12 34 -4 59
19 59 14 0 19 -7 19 -28 0 -15 -6 -34 -12 -41 -11 -10 -10 -11 4 -6 23 9 32
40 18 65 -12 22 -40 26 -58 8z"/>
<path d="M5105 8015 c0 -25 3 -45 8 -45 4 0 7 18 7 40 0 22 4 40 9 40 5 0 9
-14 9 -30 -1 -17 4 -36 11 -43 10 -9 11 -8 5 7 -4 10 -7 30 -8 45 -1 18 -7 27
-21 29 -18 2 -21 -3 -20 -43z"/>
<path d="M5172 8015 c0 -42 1 -45 8 -20 l7 30 8 -28 c6 -21 10 -25 16 -15 12
18 11 31 -1 23 -5 -3 -10 0 -10 7 0 8 -7 23 -15 34 -13 17 -14 15 -13 -31z"/>
<path d="M5232 8048 c-13 -17 -3 -78 13 -78 7 0 18 7 25 15 9 10 9 15 1 15 -6
0 -11 -4 -11 -10 0 -5 -4 -10 -8 -10 -5 0 -7 18 -6 40 2 44 1 46 -14 28z"/>
<path d="M5005 8039 c-3 -4 2 -6 10 -5 21 3 28 13 10 13 -9 0 -18 -4 -20 -8z"/>
<path d="M5050 8047 c0 -2 9 -21 21 -43 11 -21 18 -31 15 -21 -4 11 -9 30 -12
43 -3 13 -10 24 -15 24 -5 0 -9 -1 -9 -3z"/>
<path d="M5276 8035 c-9 -23 -7 -32 3 -17 6 10 10 5 14 -17 4 -17 11 -31 17
-31 6 0 4 15 -5 37 -19 46 -21 48 -29 28z"/>
<path d="M5330 8008 c0 -49 5 -47 13 5 3 20 2 37 -4 37 -5 0 -9 -19 -9 -42z"/>
<path d="M5403 8005 c0 -25 3 -42 8 -39 11 6 12 84 1 84 -4 0 -8 -20 -9 -45z"/>
<path d="M5350 8026 c0 -4 9 -19 20 -33 11 -14 20 -20 20 -14 0 7 -9 21 -20
33 -11 12 -20 18 -20 14z"/>
<path d="M5041 8013 c-1 -6 -4 -20 -7 -30 -5 -17 -5 -17 6 0 6 10 9 23 6 30
-3 9 -5 9 -5 0z"/>
<path d="M6730 8015 c0 -5 5 -17 10 -25 5 -8 10 -10 10 -5 0 6 -5 17 -10 25
-5 8 -10 11 -10 5z"/>
<path d="M4943 8003 c15 -2 37 -2 50 0 12 2 0 4 -28 4 -27 0 -38 -2 -22 -4z"/>
<path d="M3260 7982 c0 -8 61 -34 67 -29 1 2 -13 11 -32 20 -19 9 -35 13 -35
9z"/>
<path d="M4948 7973 c6 -2 18 -2 25 0 6 3 1 5 -13 5 -14 0 -19 -2 -12 -5z"/>
<path d="M3046 7935 c-9 -26 -7 -32 5 -12 6 10 9 21 6 23 -2 3 -7 -2 -11 -11z"/>
<path d="M6527 7934 c-16 -9 -27 -18 -24 -20 7 -7 57 18 57 28 0 10 1 10 -33
-8z"/>
<path d="M6766 7930 c3 -14 11 -32 16 -40 6 -10 7 -7 2 10 -3 14 -11 32 -16
40 -6 10 -7 7 -2 -10z"/>
<path d="M3011 7830 c-13 -39 -20 -76 -18 -83 4 -7 6 -6 6 4 1 9 10 44 22 78
11 35 18 65 16 67 -2 3 -14 -27 -26 -66z"/>
<path d="M3219 7794 c18 -8 36 -13 39 -10 6 6 -43 26 -61 25 -7 0 3 -7 22 -15z"/>
<path d="M6811 7794 c0 -11 3 -14 6 -6 3 7 2 16 -1 19 -3 4 -6 -2 -5 -13z"/>
<path d="M6585 7754 l-30 -14 30 6 c17 3 34 10 40 15 14 13 -5 11 -40 -7z"/>
<path d="M6821 7754 c0 -11 3 -14 6 -6 3 7 2 16 -1 19 -3 4 -6 -2 -5 -13z"/>
<path d="M2976 7694 c-4 -20 -5 -38 -3 -40 3 -3 8 11 11 32 4 20 5 38 3 40 -3
3 -8 -11 -11 -32z"/>
<path d="M6832 7720 c0 -8 4 -26 8 -40 6 -20 8 -21 8 -5 0 11 -3 29 -8 40 -5
12 -8 14 -8 5z"/>
<path d="M6852 7630 c0 -14 2 -19 5 -12 2 6 2 18 0 25 -3 6 -5 1 -5 -13z"/>
<path d="M2962 7620 c0 -14 2 -19 5 -12 2 6 2 18 0 25 -3 6 -5 1 -5 -13z"/>
<path d="M3155 7620 c11 -5 29 -9 40 -9 l20 0 -20 9 c-11 5 -29 9 -40 9 l-20
0 20 -9z"/>
<path d="M6862 7580 c0 -14 2 -19 5 -12 2 6 2 18 0 25 -3 6 -5 1 -5 -13z"/>
<path d="M2952 7565 c0 -16 2 -22 5 -12 2 9 2 23 0 30 -3 6 -5 -1 -5 -18z"/>
<path d="M6633 7583 c-13 -2 -23 -8 -23 -13 0 -5 14 -5 31 0 55 16 50 24 -8
13z"/>
<path d="M6872 7530 c0 -14 2 -19 5 -12 2 6 2 18 0 25 -3 6 -5 1 -5 -13z"/>
<path d="M2943 7495 c0 -22 2 -30 4 -17 2 12 2 30 0 40 -3 9 -5 -1 -4 -23z"/>
<path d="M6882 7450 c0 -19 2 -27 5 -17 2 9 2 25 0 35 -3 9 -5 1 -5 -18z"/>
<path d="M3005 7450 c-3 -5 -1 -10 4 -10 6 0 11 5 11 10 0 6 -2 10 -4 10 -3 0
-8 -4 -11 -10z"/>
<path d="M3120 7440 c8 -5 26 -9 40 -9 23 0 23 1 5 9 -11 5 -29 9 -40 9 -17 1
-17 -1 -5 -9z"/>
<path d="M2932 7265 c-1 -111 4 -219 13 -281 15 -109 45 -248 51 -242 2 3 -3
38 -12 79 -32 153 -36 189 -43 404 l-8 220 -1 -180z"/>
<path d="M6658 7393 c12 -2 30 -2 40 0 9 3 -1 5 -23 4 -22 0 -30 -2 -17 -4z"/>
<path d="M7065 7350 c-21 -41 -21 -200 1 -242 12 -23 18 -28 24 -17 6 8 4 16
-3 21 -9 5 -9 10 0 19 8 8 9 18 3 30 -7 12 -6 20 0 24 8 5 7 11 -1 21 -9 11
-9 18 -1 26 7 7 8 17 2 29 -7 12 -6 20 0 24 7 4 7 11 2 18 -5 7 -9 27 -7 45 2
40 0 40 -20 2z"/>
<path d="M6892 7235 c-1 -77 -4 -165 -7 -195 l-4 -55 10 55 c5 30 8 118 6 195
l-3 140 -2 -140z"/>
<path d="M3091 7298 c-1 -23 3 -28 24 -28 17 0 23 4 19 14 -8 20 14 30 33 14
14 -11 16 -11 11 2 -8 24 -45 24 -53 1 -8 -28 -23 -27 -28 2 -4 19 -4 18 -6
-5z"/>
<path d="M3448 7283 c7 -3 16 -2 19 1 4 3 -2 6 -13 5 -11 0 -14 -3 -6 -6z"/>
<path d="M3160 7269 c0 -5 5 -7 10 -4 6 3 10 8 10 11 0 2 -4 4 -10 4 -5 0 -10
-5 -10 -11z"/>
<path d="M4920 7270 c0 -5 5 -10 10 -10 6 0 10 5 10 10 0 6 -4 10 -10 10 -5 0
-10 -4 -10 -10z"/>
<path d="M7138 7263 c12 -2 32 -2 45 0 12 2 2 4 -23 4 -25 0 -35 -2 -22 -4z"/>
<path d="M6650 7245 c0 -7 15 -9 35 -7 19 2 35 7 35 11 0 3 -16 6 -35 6 -19 0
-35 -5 -35 -10z"/>
<path d="M3116 7243 l-28 -5 23 -24 c26 -28 39 -31 39 -9 0 9 7 18 16 22 13 5
13 7 2 14 -7 5 -15 8 -18 7 -3 0 -18 -3 -34 -5z m24 -29 c0 -14 -3 -14 -15 -4
-8 7 -15 14 -15 16 0 2 7 4 15 4 8 0 15 -7 15 -16z"/>
<path d="M2995 7230 c-3 -5 -2 -10 4 -10 5 0 13 5 16 10 3 6 2 10 -4 10 -5 0
-13 -4 -16 -10z"/>
<path d="M6630 7199 c0 -5 5 -7 10 -4 6 3 10 8 10 11 0 2 -4 4 -10 4 -5 0 -10
-5 -10 -11z"/>
<path d="M6674 7193 c1 -13 -6 -18 -21 -17 -12 0 -20 -3 -17 -8 10 -16 46 -8
51 12 7 26 20 26 26 0 4 -17 4 -16 3 2 -1 15 -8 24 -22 26 -16 2 -22 -2 -20
-15z"/>
<path d="M3100 7070 c0 -11 14 -11 50 0 22 7 21 8 -12 9 -21 1 -38 -3 -38 -9z"/>
<path d="M7080 7059 c0 -5 5 -7 10 -4 6 3 10 8 10 11 0 2 -4 4 -10 4 -5 0 -10
-5 -10 -11z"/>
<path d="M6640 7030 c0 -6 17 -10 37 -10 43 0 41 5 -4 13 -19 4 -33 2 -33 -3z"/>
<path d="M6872 6940 c0 -14 2 -19 5 -12 2 6 2 18 0 25 -3 6 -5 1 -5 -13z"/>
<path d="M3145 6890 c-18 -8 -18 -9 5 -9 14 0 32 4 40 9 12 8 12 10 -5 9 -11
0 -29 -4 -40 -9z"/>
<path d="M6861 6884 c0 -11 3 -14 6 -6 3 7 2 16 -1 19 -3 4 -6 -2 -5 -13z"/>
<path d="M3040 6859 c0 -5 5 -7 10 -4 6 3 10 8 10 11 0 2 -4 4 -10 4 -5 0 -10
-5 -10 -11z"/>
<path d="M6613 6853 c8 -13 57 -23 57 -12 0 5 -6 9 -14 9 -8 0 -22 3 -32 7
-11 4 -15 3 -11 -4z"/>
<path d="M3002 6720 c0 -8 6 -31 13 -50 7 -19 13 -28 13 -20 0 8 -6 31 -13 50
-7 19 -13 28 -13 20z"/>
<path d="M6821 6723 c-1 -6 -4 -20 -7 -30 -5 -17 -5 -17 6 0 6 10 9 23 6 30
-3 9 -5 9 -5 0z"/>
<path d="M3198 6713 c-10 -2 -18 -8 -18 -13 0 -5 14 -4 30 1 45 16 36 25 -12
12z"/>
<path d="M3095 6670 c-3 -5 -1 -10 4 -10 6 0 11 5 11 10 0 6 -2 10 -4 10 -3 0
-8 -4 -11 -10z"/>
<path d="M6589 6664 c18 -8 36 -13 39 -10 6 6 -43 26 -61 25 -7 0 3 -7 22 -15z"/>
<path d="M6796 6635 c-9 -26 -7 -32 5 -12 6 10 9 21 6 23 -2 3 -7 -2 -11 -11z"/>
<path d="M3040 6597 c0 -10 61 -160 82 -200 11 -22 22 -37 24 -34 3 3 -1 16
-10 29 -8 12 -31 63 -51 113 -34 84 -45 106 -45 92z"/>
<path d="M3260 6534 l-25 -15 25 7 c14 3 32 10 40 15 13 7 13 8 0 8 -8 0 -26
-6 -40 -15z"/>
<path d="M6500 6501 c8 -5 26 -12 40 -15 l25 -7 -25 15 c-14 9 -32 15 -40 15
-13 0 -13 -1 0 -8z"/>
<path d="M3165 6490 c-3 -5 -1 -10 4 -10 6 0 11 5 11 10 0 6 -2 10 -4 10 -3 0
-8 -4 -11 -10z"/>
<path d="M6715 6429 c-4 -6 -5 -12 -2 -15 2 -3 7 2 10 11 7 17 1 20 -8 4z"/>
<path d="M3311 6414 c10 -13 10 -17 -1 -24 -28 -17 -3 -19 28 -2 40 21 45 36
12 39 -21 2 -22 1 -6 -5 18 -8 18 -9 2 -15 -10 -4 -19 -1 -22 8 -4 8 -11 15
-16 15 -6 0 -5 -7 3 -16z"/>
<path d="M6460 6392 c14 -5 26 -16 28 -25 4 -22 -21 -22 -42 -1 -9 8 -16 11
-16 6 0 -16 28 -34 47 -30 12 2 18 12 18 28 0 21 -5 25 -30 27 -28 2 -28 1 -5
-5z"/>
<path d="M3350 6361 c-7 -15 -6 -24 6 -36 14 -14 19 -14 37 -2 12 7 23 20 26
28 3 9 -1 8 -13 -4 -19 -18 -42 -22 -50 -8 -7 11 12 27 39 34 15 4 14 5 -7 6
-18 1 -31 -6 -38 -18z"/>
<path d="M3240 6345 c-8 -9 -8 -15 -2 -15 12 0 26 19 19 26 -2 2 -10 -2 -17
-11z"/>
<path d="M6400 6325 c-9 -11 -10 -19 -3 -26 8 -8 11 -7 10 2 -1 8 3 15 8 17 6
1 11 -9 13 -23 2 -14 8 -25 13 -25 8 0 3 43 -8 63 -7 11 -19 8 -33 -8z"/>
<path d="M3160 6327 c0 -5 11 -25 25 -45 14 -20 25 -33 25 -29 0 5 -11 25 -25
45 -14 20 -25 33 -25 29z"/>
<path d="M6457 6313 c-4 -3 -7 -11 -7 -17 0 -6 5 -5 12 2 6 6 9 14 7 17 -3 3
-9 2 -12 -2z"/>
<path d="M3258 6303 c7 -3 16 -2 19 1 4 3 -2 6 -13 5 -11 0 -14 -3 -6 -6z"/>
<path d="M6561 6284 c0 -11 3 -14 6 -6 3 7 2 16 -1 19 -3 4 -6 -2 -5 -13z"/>
<path d="M3280 6259 c0 -5 5 -7 10 -4 6 3 10 8 10 11 0 2 -4 4 -10 4 -5 0 -10
-5 -10 -11z"/>
<path d="M6533 6258 c-18 -24 -24 -38 -16 -38 4 0 13 11 20 25 12 27 11 32 -4
13z"/>
<path d="M6591 6198 c-18 -28 -25 -45 -16 -38 15 13 60 90 52 90 -2 0 -19 -23
-36 -52z"/>
<path d="M3220 6220 c6 -11 13 -20 16 -20 2 0 0 9 -6 20 -6 11 -13 20 -16 20
-2 0 0 -9 6 -20z"/>
<path d="M3453 6218 c-13 -6 -23 -15 -23 -20 0 -8 17 -1 50 22 20 13 1 12 -27
-2z"/>
<path d="M6335 6175 c16 -13 31 -22 34 -20 5 6 -41 44 -54 44 -5 0 3 -11 20
-24z"/>
<path d="M3250 6173 c0 -6 8 -17 18 -24 16 -13 16 -13 2 6 -8 11 -16 22 -17
24 -2 2 -3 0 -3 -6z"/>
<path d="M3365 6150 c-3 -5 -1 -10 4 -10 6 0 11 5 11 10 0 6 -2 10 -4 10 -3 0
-8 -4 -11 -10z"/>
<path d="M3280 6126 c0 -2 8 -10 18 -17 15 -13 16 -12 3 4 -13 16 -21 21 -21
13z"/>
<path d="M6430 6100 c0 -5 5 -10 11 -10 5 0 7 5 4 10 -3 6 -8 10 -11 10 -2 0
-4 -4 -4 -10z"/>
<path d="M3560 6065 c-13 -14 -19 -25 -13 -25 5 0 20 11 33 25 13 14 19 25 13
25 -5 0 -20 -11 -33 -25z"/>
<path d="M3330 6063 c0 -5 21 -32 48 -59 26 -28 35 -36 21 -20 -14 17 -35 44
-47 60 -12 16 -22 24 -22 19z"/>
<path d="M4224 6058 c-4 -7 -15 -24 -23 -38 -10 -15 -11 -21 -3 -16 13 7 46
66 38 66 -3 0 -8 -6 -12 -12z"/>
<path d="M6210 6035 c13 -14 28 -25 33 -25 6 0 0 11 -13 25 -13 14 -28 25 -33
25 -6 0 0 -11 13 -25z"/>
<path d="M3490 5994 c0 -8 5 -12 10 -9 6 3 10 10 10 16 0 5 -4 9 -10 9 -5 0
-10 -7 -10 -16z"/>
<path d="M4168 5968 c-22 -34 -42 -74 -31 -63 14 15 55 85 50 85 -3 0 -11 -10
-19 -22z"/>
<path d="M6414 5958 l-29 -33 33 29 c30 28 37 36 29 36 -2 0 -16 -15 -33 -32z"/>
<path d="M3699 5933 l-24 -28 28 24 c25 23 32 31 24 31 -2 0 -14 -12 -28 -27z"/>
<path d="M3500 5867 c70 -73 192 -180 250 -220 14 -9 36 -25 50 -34 13 -10 21
-13 18 -7 -4 6 -26 24 -50 39 -59 40 -156 123 -258 219 l-85 81 75 -78z"/>
<path d="M6070 5923 c0 -5 9 -18 20 -28 11 -10 20 -14 20 -8 0 5 -9 18 -20 28
-11 10 -20 14 -20 8z"/>
<path d="M3625 5861 c-3 -5 -1 -12 4 -15 5 -3 11 1 15 9 6 16 -9 21 -19 6z"/>
<path d="M4101 5833 c-10 -26 -10 -27 4 -9 8 11 15 23 15 28 0 15 -7 8 -19
-19z"/>
<path d="M3841 5819 c-13 -17 -21 -33 -18 -35 6 -6 47 45 47 57 0 14 -5 11
-29 -22z"/>
<path d="M3370 5816 c0 -2 8 -10 18 -17 15 -13 16 -12 3 4 -13 16 -21 21 -21
13z"/>
<path d="M5935 5793 c11 -18 23 -33 28 -33 11 0 -8 34 -29 51 -16 12 -16 10 1
-18z"/>
<path d="M6229 5773 l-24 -28 28 24 c15 14 27 26 27 28 0 8 -8 1 -31 -24z"/>
<path d="M3440 5745 c19 -19 36 -35 39 -35 3 0 -10 16 -29 35 -19 19 -36 35
-39 35 -3 0 10 -16 29 -35z"/>
<path d="M3964 5768 c-5 -8 -2 -9 9 -5 20 8 32 -9 15 -20 -7 -4 -13 -15 -13
-23 0 -8 -7 -15 -15 -15 -8 0 -14 6 -12 13 1 6 -3 12 -9 12 -20 0 -4 -35 18
-38 16 -2 26 5 38 32 9 19 14 40 10 45 -8 15 -32 14 -41 -1z"/>
<path d="M3787 5743 c-4 -3 -7 -11 -7 -17 0 -6 5 -5 12 2 6 6 9 14 7 17 -3 3
-9 2 -12 -2z"/>
<path d="M4026 5731 c-19 -21 -21 -32 -3 -28 6 1 12 -5 12 -13 0 -8 -8 -16
-19 -18 -11 -3 -16 0 -12 7 4 6 2 11 -3 11 -15 0 -14 -15 3 -29 30 -25 67 16
39 44 -20 21 -11 30 16 15 26 -13 28 1 2 17 -15 10 -22 9 -35 -6z"/>
<path d="M5796 5737 c-23 -17 -11 -47 17 -44 14 1 23 -5 25 -16 3 -16 0 -18
-20 -12 -18 6 -21 5 -11 -5 6 -7 19 -10 28 -6 23 9 15 51 -10 52 -38 3 -40 5
-21 19 11 8 17 17 15 20 -3 3 -13 -1 -23 -8z"/>
<path d="M6164 5718 l-19 -23 23 19 c21 18 27 26 19 26 -2 0 -12 -10 -23 -22z"/>
<path d="M3670 5681 c269 -247 806 -435 1225 -429 109 1 109 1 -45 9 -174 8
-293 26 -456 69 -110 29 -268 85 -321 114 -47 25 -20 18 86 -24 154 -61 404
-128 433 -117 7 3 3 6 -9 6 -12 1 -84 17 -159 36 -119 31 -202 59 -350 121
-23 9 -33 11 -29 3 28 -44 -235 108 -370 214 l-50 39 45 -41z"/>
<path d="M5748 5697 c11 -12 11 -19 0 -36 -7 -11 -9 -23 -6 -26 7 -8 48 16 48
29 0 4 -7 3 -14 -4 -13 -10 -15 -7 -13 16 1 16 -4 29 -13 32 -13 4 -13 3 -2
-11z"/>
<path d="M6000 5701 c0 -6 4 -13 10 -16 6 -3 7 1 4 9 -7 18 -14 21 -14 7z"/>
<path d="M5721 5684 c0 -11 3 -14 6 -6 3 7 2 16 -1 19 -3 4 -6 -2 -5 -13z"/>
<path d="M6094 5667 c-22 -18 -51 -40 -65 -50 -23 -17 -23 -17 7 -1 30 16 114
83 104 83 -3 0 -23 -14 -46 -32z"/>
<path d="M4162 5628 c-15 -42 -8 -48 12 -9 18 34 19 41 8 41 -4 0 -13 -14 -20
-32z"/>
<path d="M3927 5643 c-12 -12 -7 -22 8 -17 8 4 15 10 15 15 0 11 -14 12 -23 2z"/>
<path d="M5611 5610 c6 -16 15 -30 19 -30 5 0 4 14 -1 30 -6 17 -15 30 -19 30
-5 0 -4 -13 1 -30z"/>
<path d="M5875 5620 c3 -5 8 -10 11 -10 2 0 4 5 4 10 0 6 -5 10 -11 10 -5 0
-7 -4 -4 -10z"/>
<path d="M3995 5600 c-3 -5 -1 -10 4 -10 6 0 11 5 11 10 0 6 -2 10 -4 10 -3 0
-8 -4 -11 -10z"/>
<path d="M3840 5588 c17 -17 130 -82 130 -75 0 3 -21 18 -47 33 -27 15 -59 34
-73 42 -22 14 -23 14 -10 0z"/>
<path d="M5796 5585 c-11 -8 -15 -15 -9 -15 6 0 16 7 23 15 16 19 11 19 -14 0z"/>
<path d="M5960 5574 c-60 -42 -269 -140 -391 -182 -280 -98 -562 -128 -909
-98 l-55 5 45 -9 c25 -5 113 -12 195 -16 235 -10 471 22 699 97 126 41 379
161 431 204 39 31 30 31 -15 -1z"/>
<path d="M4336 5568 c-3 -13 -6 -30 -6 -38 1 -13 2 -13 9 0 16 27 22 60 13 60
-5 0 -12 -10 -16 -22z"/>
<path d="M5434 5555 c4 -16 12 -34 18 -40 7 -7 8 -1 4 20 -4 17 -12 35 -18 40
-7 7 -8 1 -4 -20z"/>
<path d="M3694 5541 c7 -11 46 -35 46 -28 0 3 -12 12 -26 22 -15 9 -23 12 -20
6z"/>
<path d="M4120 5534 c0 -8 5 -12 10 -9 6 3 10 10 10 16 0 5 -4 9 -10 9 -5 0
-10 -7 -10 -16z"/>
<path d="M4516 5518 c-3 -13 -6 -30 -6 -37 0 -23 16 0 24 32 8 32 -9 37 -18 5z"/>
<path d="M5256 5503 c4 -16 11 -32 17 -38 6 -7 8 -2 3 15 -3 14 -6 31 -6 38 0
6 -5 12 -10 12 -6 0 -8 -11 -4 -27z"/>
<path d="M4837 5514 c-13 -14 -7 -26 7 -15 10 8 16 9 21 1 3 -5 -1 -13 -10
-16 -14 -6 -14 -8 2 -20 15 -11 16 -15 4 -26 -11 -10 -14 -10 -18 0 -5 14 -23
16 -23 3 0 -5 10 -13 22 -17 24 -7 53 21 41 40 -4 6 -7 20 -8 31 0 20 -25 32
-38 19z"/>
<path d="M4913 5513 c-18 -7 -16 -60 2 -67 19 -7 45 3 46 18 5 42 -16 63 -48
49z m35 -27 c2 -10 -1 -23 -7 -29 -16 -16 -34 6 -26 33 8 24 28 22 33 -4z"/>
<path d="M5650 5511 c0 -6 5 -13 10 -16 6 -3 10 1 10 9 0 9 -4 16 -10 16 -5 0
-10 -4 -10 -9z"/>
<path d="M3750 5502 c0 -5 17 -18 38 -27 20 -10 42 -20 47 -23 24 -12 -13 16
-47 37 -21 13 -38 18 -38 13z"/>
<path d="M3994 5495 c11 -8 25 -15 30 -15 6 0 2 7 -8 15 -11 8 -25 15 -30 15
-6 0 -2 -7 8 -15z"/>
<path d="M4701 5473 c1 -34 2 -35 9 -13 11 36 11 50 0 50 -5 0 -10 -17 -9 -37z"/>
<path d="M5070 5476 c0 -19 5 -38 10 -41 6 -4 10 8 10 29 0 19 -4 38 -10 41
-6 4 -10 -8 -10 -29z"/>
<path d="M6030 5480 c-12 -8 -11 -10 8 -10 12 0 22 5 22 10 0 13 -11 13 -30 0z"/>
<path d="M4306 5471 c-4 -7 -5 -15 -2 -18 9 -9 19 4 14 18 -4 11 -6 11 -12 0z"/>
<path d="M6062 5460 c-8 -13 -9 -27 -3 -43 5 -14 7 -91 4 -173 l-6 -149 -171
3 c-94 1 -177 5 -183 7 -9 3 -13 28 -13 80 0 41 -3 75 -7 75 -5 0 -41 -11 -81
-25 -81 -27 -96 -30 -87 -15 9 15 -18 12 -153 -15 -195 -40 -298 -48 -506 -42
-187 5 -325 24 -466 62 -71 19 -100 19 -100 0 0 -22 -18 -19 -127 20 -54 19
-99 35 -100 35 0 0 -4 -44 -8 -97 -4 -54 -13 -101 -19 -105 -6 -4 -61 -8 -122
-8 -61 0 -132 -3 -158 -6 l-46 -7 4 -146 c5 -144 9 -181 21 -201 3 -6 1 -10
-4 -10 -14 0 -14 -90 -1 -124 5 -14 16 -62 24 -108 8 -46 33 -171 56 -278 23
-107 41 -202 42 -210 0 -8 9 -51 20 -95 10 -44 21 -89 23 -100 2 -11 4 -21 5
-22 2 -2 3 -6 5 -10 1 -5 4 -15 8 -23 3 -8 10 -31 16 -50 26 -94 49 -131 105
-178 9 -7 43 -14 75 -15 32 -1 57 -5 54 -9 -2 -5 150 -6 339 -3 189 2 469 4
623 4 154 -1 287 -1 295 -1 203 3 251 5 255 13 4 5 17 9 30 9 14 0 35 14 54
35 33 39 61 122 105 320 15 66 36 158 46 205 11 47 27 121 36 165 9 44 24 114
34 155 10 41 23 113 30 160 8 47 17 90 22 96 4 6 6 30 3 53 -5 51 3 74 21 67
8 -3 14 -4 14 -3 6 36 17 704 12 713 -6 10 -10 9 -20 -6z"/>
<path d="M3721 5454 c0 -11 3 -14 6 -6 3 7 2 16 -1 19 -3 4 -6 -2 -5 -13z"/>
<path d="M5471 5444 c0 -11 3 -14 6 -6 3 7 2 16 -1 19 -3 4 -6 -2 -5 -13z"/>
<path d="M4490 5405 c0 -8 5 -15 10 -15 6 0 10 7 10 15 0 8 -4 15 -10 15 -5 0
-10 -7 -10 -15z"/>
<path d="M5281 5394 c0 -11 3 -14 6 -6 3 7 2 16 -1 19 -3 4 -6 -2 -5 -13z"/>
<path d="M4691 5374 c0 -11 3 -14 6 -6 3 7 2 16 -1 19 -3 4 -6 -2 -5 -13z"/>
<path d="M4865 5370 c3 -5 1 -10 -5 -10 -6 0 -8 -5 -4 -11 4 -8 9 -7 15 2 12
19 11 29 -2 29 -5 0 -7 -4 -4 -10z"/>
<path d="M5080 5364 c0 -8 5 -12 10 -9 6 3 10 10 10 16 0 5 -4 9 -10 9 -5 0
-10 -7 -10 -16z"/>
<path d="M4905 5359 c-4 -6 -5 -12 -2 -15 2 -3 7 2 10 11 7 17 1 20 -8 4z"/>
<path d="M4945 5360 c3 -5 8 -10 11 -10 2 0 4 5 4 10 0 6 -5 10 -11 10 -5 0
-7 -4 -4 -10z"/>
</g>
</svg>
